<svg xmlns="http://www.w3.org/2000/svg" viewBox="0 0 100 125"><path d="M59.616 16.284c-1.51.073-3.008.228-3.826.39-1.864.377-4.483 1.443-6.658 2.717-3.96 2.32-7.098 5.4-9.034 8.87-.187.33-.37.61-.405.61s-.12-.03-.18-.07c-.234-.15-1.465-.66-2.14-.88-3.25-1.08-7.164-1.29-10.4-.57-4.054.91-8.43 3.76-11.167 7.29-1.248 1.6-2.072 3.21-2.828 5.53-.558 1.72-.936 3.48-.942 4.38-.005.54.058.49-1.237 1.13-1.68.83-2.58 1.42-3.97 2.59-.64.54-1.89 1.78-2.48 2.47C1.99 53.46.61 56.57.09 60.37c-.13.935-.13 3.286 0 4.24.35 2.613 1.173 4.98 2.482 7.15.798 1.32 1.657 2.416 2.832 3.62 2.737 2.8 4.8 4.01 8.397 4.95.99.25 1.4.33 2.28.43 1.52.177 3.61.26 8.41.34 9.36.156 47.69.244 51.54.115 7.86-.254 9.86-.616 13.75-2.49 1.98-.953 3.32-1.9 4.85-3.422 1-1.003 1.48-1.583 2.19-2.635 1.81-2.68 2.86-5.84 3.14-9.37.25-3.247-.38-6.255-1.97-9.444-2.34-4.664-7.24-8.614-12.2-9.84-.5-.125-.59-.16-.59-.25 0-.056.06-.57.14-1.143.13-.94.14-1.19.14-2.6 0-1.15-.02-1.73-.09-2.25-.36-2.89-1.09-5.32-2.39-7.94-2.09-4.24-5.21-7.74-8.88-9.97-2.44-1.47-6.7-3.15-8.76-3.44-1.22-.17-3.71-.22-5.73-.12zm4.97 2.947c.762.1 1.237.21 2.253.55 2.35.78 4.86 1.94 6.36 2.95 2.95 1.98 5.41 4.84 7.12 8.29.81 1.63 1.25 2.81 1.66 4.42.42 1.64.59 2.99.58 4.65-.01 1.02-.03 1.38-.17 2.46-.31 2.37-.31 2.67-.04 3.13.26.45.49.57 1.58.86 2.18.58 2.65.74 3.71 1.24 3.08 1.47 5.88 4.07 7.49 6.97.61 1.1 1.34 3.01 1.6 4.22.23 1.04.31 1.8.31 2.98 0 1.55-.16 2.76-.55 4.3-1.09 4.29-3.63 7.57-7.45 9.62-.76.41-2.4 1.12-3.2 1.38-2.34.79-5.02 1.02-12.9 1.15-5.6.1-39.3-.02-48.31-.16-6.42-.09-8.22-.21-9.78-.59-3.28-.81-4.84-1.69-7.26-4.11-1.89-1.89-3.22-3.99-3.99-6.3-1.27-3.85-.95-7.92.94-11.68.99-1.98 2.95-4.22 5.09-5.81.832-.62 1.3-.9 2.48-1.47 1.17-.58 1.71-.91 2.05-1.27.51-.55.65-.96.72-2.05.15-2.37 1.28-5.732 2.595-7.694.6-.895 1.016-1.392 1.93-2.31 1.89-1.893 4.11-3.333 6.51-4.23 2.27-.85 5.03-1.07 7.85-.624 1.89.29 3.03.67 4.934 1.63l1.16.58h.39c.45 0 .81-.15 1.07-.45.084-.1.5-.782.92-1.52.42-.733.91-1.55 1.08-1.81 2.62-3.92 7.5-7.41 12.253-8.77.92-.26 2.143-.42 3.986-.52 1.06-.06 4.38-.024 4.97.05z"/><path d="M49.158 39.157c-.43.135-.807.452-.978.83-.078.17-.083 1.143-.11 10.732l-.025 10.54-2.278-2.44c-1.724-1.84-4.62-4.95-5.52-5.91-.035-.04-2.143 1.86-2.143 1.94 0 .03.502.57 3.47 3.74.854.91 2.39 2.55 3.416 3.65s2.568 2.74 3.422 3.65l1.564 1.67.41-.43c.226-.23 1.935-2.05 3.8-4.05 1.858-1.99 4.07-4.36 4.913-5.26.83-.9 1.81-1.94 2.16-2.31l.63-.68-.33-.31c-.18-.17-.67-.62-1.08-1l-.75-.69-.13.15c-.07.08-1.11 1.2-2.32 2.48-2.51 2.67-3.39 3.62-5.1 5.45l-1.22 1.31-.03-11.07-.03-11.07-.12-.21c-.31-.59-1.09-.93-1.67-.76z"/></svg>