<svg xmlns="http://www.w3.org/2000/svg" style="display:none;">
	<symbol id="nest-logo" viewBox="0 0 528.96 521.51">
  		<path d="M0 517.54c.39-3 .72-5.93 1.19-8.88 1.76-11.25 3.3-22.54 5.4-33.72 5.31-28.32 10.68-56.63 16.4-84.87 6.16-30.23 12.56-60.39 19.06-90.54 7.34-34.07 14.88-68.1 22.38-102.14 4.35-19.75 8.79-39.48 13.19-59.21a1.89 1.89 0 0 1 .7-1.13l74 245.81c.73-3.5 1.44-6.86 2.15-10.24q9.27-44.47 18.53-88.94t18.72-89.21q9.81-46.61 19.69-93.21c3.16-14.91 6.25-29.84 9.68-44.69a207.3 207.3 0 0 1 12.51-38.65 93.87 93.87 0 0 1 5.15-9.68c2.14-3.56 4.84-6.64 8.86-8.23h3.05c5 2.08 6.12 6.59 7 11.18 1.27 6.64 1.13 13.37.76 20.08-1 18.86-4.87 37.26-8.83 55.66-6.44 29.78-12.68 59.61-19.06 89.41s-12.72 59.31-19.11 89q-10.27 47.65-20.6 95.31-10.42 48-20.93 95.89-6.28 28.74-12.6 57.46c-.06.28-.15.54-.23.82l-.44.06-76.39-274.3-2.66 10.21c-17.09 65.62-34.34 131.2-53.14 196.35-6.34 22-12.73 43.9-20.45 65.43-.92 2.58-2 5.1-3.06 7.63a7.36 7.36 0 0 1-.9 1.3Q0 519.53 0 517.54zm528.96-339.31c-6.36 4.71-12.43 9.07-18.35 13.62-10.2 7.84-20.3 15.82-30.49 23.69a4.59 4.59 0 0 1-2.6.89c-9.92.06-19.84 0-29.77 0h-1.6l-.05.3 22.05 7.96a351.61 351.61 0 0 1-31.58 21.56c.76 2.54 1.53 5.1 2.3 7.66 10 33.12 19.76 66.3 28.09 99.89a491.75 491.75 0 0 1 11.09 59.93 312.2 312.2 0 0 1 2.49 44c-.11 5.11-.51 10.22-.78 15.32l-.49.13c-.46-.63-.93-1.25-1.37-1.89-7.83-11.51-14.15-23.85-19.88-36.51-11.18-24.69-19.72-50.3-26.59-76.48-8.44-32.14-15.69-64.57-22.63-97.06-.14-.64-.3-1.27-.51-2.13-22.71 6.67-40.06-.18-52-20.83.48-.27.94-.53 1.41-.78 19.18-10 39.22-18 59.59-25.24 23.85-8.46 48.08-15.71 72.58-22 .44-.11.87-.25 1.38-.4-3.57-.57-49.84 10.58-70.18 16.93-23.07 7.2-45.58 15.83-67 27.14-4.79-9.18-4.67-19.35 2.27-27.38 4.91-5.68 11.17-9.47 18-12.26 6.24-2.55 12.67-4.62 19-6.91L364.27 28.34l.5-.12c.2.5.43 1 .6 1.5q26.28 75.47 50.78 151.55c.52 1.61 1.19 1.6 2.61 1.44 11-1.24 21.92-2.58 32.91-3.47 20.81-1.69 41.68-1.79 62.54-1.48 4.79.08 9.61.3 14.75.47z"/>
 		<path d="M280.93 405.12c3-.89 6-1.76 9-2.68 21.49-6.58 42.75-13.76 63-23.53 8.72-4.2 17.22-8.83 24.58-15.2a50.79 50.79 0 0 0 7.34-7.9c3.66-4.89 3.71-10.13.57-15.41a46.16 46.16 0 0 0-8.68-10.38c-9.1-8.34-19.51-14.81-30.24-20.77-10.39-5.78-21-11.15-31.28-17.14-12.51-7.34-24.15-15.96-34.07-26.77-7.43-8.07-13.38-17-16.33-27.73-4-14.68-1.23-28.3 6.79-41 6-9.56 14.13-17.18 23.31-23.67 13.79-9.74 28.72-17.07 45.19-21a35.49 35.49 0 0 1 11.64-1.13c2.9.27 5.35 1.25 6.57 4.16s1.36 6.05-1 8.54a39 39 0 0 1-6.54 5.67c-7.45 4.87-15.06 9.48-22.58 14.23-8.75 5.52-17.26 11.35-24.7 18.6a50.85 50.85 0 0 0-9.23 11.7 21.12 21.12 0 0 0-.65 20.32 52.78 52.78 0 0 0 11.09 14.83c8.66 8.58 18.63 15.44 29 21.65 9.6 5.73 19.46 11 29 16.85 11.85 7.22 23 15.39 32.5 25.62 5.94 6.36 10.94 13.36 13.51 21.76 4.28 13.77.87 25.78-8.86 36.14-6.51 6.94-14.56 11.68-23.11 15.64-13.18 6.1-27.07 9.93-41.25 12.77a296.18 296.18 0 0 1-54.57 5.83z"/>
  		<path d="M238.97 395.02c1.45 2.28 2.65 4.45 4.12 6.42 4.75 6.35 11 10.92 17.81 14.84 9.73 5.63 20.27 9.35 30.82 13.06q6 2.12 12 4.54a25.09 25.09 0 0 1 4.38 2.44 6.28 6.28 0 0 1 2.84 6.72 5.6 5.6 0 0 1-4.52 5 37.3 37.3 0 0 1-9.46 1.32c-25.06-.94-47.69-8.55-66.19-26-14.45-13.61-20.35-30.73-18.66-50.51 2-23.9 14-42.14 32.36-56.68 8.58-6.79 18-12.07 28.72-14.59 11-2.59 21.62-1.65 31.48 4.32a37.1 37.1 0 0 1 11.89 11.23c4.85 7.33 5.25 15.21 2.39 23.36a49.06 49.06 0 0 1-12.25 18.57 132.59 132.59 0 0 1-62.39 35c-1.62.34-3.24.56-5.34.96zm-1-2.79c1.37-.57 2.6-1 3.8-1.58 11.91-5.39 22.5-12.82 32.49-21.15 8.23-6.86 15.88-14.29 22-23.18 2.54-3.71 4.76-7.59 5.58-12.09.37-2 .33-4-1.12-5.64a19.54 19.54 0 0 0-9.74-6.23 23.38 23.38 0 0 0-15.49 1.65 69.71 69.71 0 0 0-34.64 32.57c-3.8 7.32-5.18 15.49-5.05 23.8a34.71 34.71 0 0 0 2.21 11.84z"/>
  	</symbol>
</svg>
